<mxfile host="app.diagrams.net" agent="Mozilla/5.0 (Windows NT 10.0; Win64; x64) AppleWebKit/537.36 (KHTML, like Gecko) Chrome/134.0.0.0 Safari/537.36" version="26.2.9">
  <diagram name="Página-1" id="2MJimR9oVwQxTo0xw9SD">
    <mxGraphModel dx="948" dy="1740" grid="1" gridSize="10" guides="1" tooltips="1" connect="1" arrows="1" fold="1" page="1" pageScale="1" pageWidth="827" pageHeight="1169" math="0" shadow="0">
      <root>
        <mxCell id="0" />
        <mxCell id="1" parent="0" />
        <mxCell id="4wjB-CnQujIZlB-kZ8fe-33" value="" style="rounded=0;whiteSpace=wrap;html=1;" parent="1" vertex="1">
          <mxGeometry x="100" y="-1050" width="640" height="1160" as="geometry" />
        </mxCell>
        <mxCell id="4wjB-CnQujIZlB-kZ8fe-3" value="" style="edgeStyle=orthogonalEdgeStyle;rounded=0;orthogonalLoop=1;jettySize=auto;html=1;" parent="1" source="4wjB-CnQujIZlB-kZ8fe-1" target="4wjB-CnQujIZlB-kZ8fe-2" edge="1">
          <mxGeometry relative="1" as="geometry" />
        </mxCell>
        <mxCell id="4wjB-CnQujIZlB-kZ8fe-1" value="" style="ellipse;whiteSpace=wrap;html=1;aspect=fixed;fillColor=#000000;" parent="1" vertex="1">
          <mxGeometry x="290" y="-990" width="30" height="30" as="geometry" />
        </mxCell>
        <mxCell id="4wjB-CnQujIZlB-kZ8fe-5" value="" style="edgeStyle=orthogonalEdgeStyle;rounded=0;orthogonalLoop=1;jettySize=auto;html=1;" parent="1" source="4wjB-CnQujIZlB-kZ8fe-2" target="4wjB-CnQujIZlB-kZ8fe-4" edge="1">
          <mxGeometry relative="1" as="geometry" />
        </mxCell>
        <mxCell id="4wjB-CnQujIZlB-kZ8fe-2" value="Gestão entra no sistema" style="rounded=1;whiteSpace=wrap;html=1;fillColor=#FFFFFF;" parent="1" vertex="1">
          <mxGeometry x="245" y="-920" width="120" height="60" as="geometry" />
        </mxCell>
        <mxCell id="4wjB-CnQujIZlB-kZ8fe-7" value="" style="edgeStyle=orthogonalEdgeStyle;rounded=0;orthogonalLoop=1;jettySize=auto;html=1;" parent="1" source="4wjB-CnQujIZlB-kZ8fe-4" target="4wjB-CnQujIZlB-kZ8fe-6" edge="1">
          <mxGeometry relative="1" as="geometry" />
        </mxCell>
        <mxCell id="4wjB-CnQujIZlB-kZ8fe-4" value="Gestão seleciona o aluno que deseja" style="whiteSpace=wrap;html=1;fillColor=#FFFFFF;rounded=1;" parent="1" vertex="1">
          <mxGeometry x="245" y="-820" width="120" height="60" as="geometry" />
        </mxCell>
        <mxCell id="4wjB-CnQujIZlB-kZ8fe-9" value="" style="edgeStyle=orthogonalEdgeStyle;rounded=0;orthogonalLoop=1;jettySize=auto;html=1;" parent="1" source="4wjB-CnQujIZlB-kZ8fe-6" target="4wjB-CnQujIZlB-kZ8fe-8" edge="1">
          <mxGeometry relative="1" as="geometry" />
        </mxCell>
        <mxCell id="4wjB-CnQujIZlB-kZ8fe-6" value="Sistema mostra as ações que a gestão pode realizar sobre o aluno" style="whiteSpace=wrap;html=1;fillColor=#FFFFFF;rounded=1;" parent="1" vertex="1">
          <mxGeometry x="245" y="-720" width="120" height="60" as="geometry" />
        </mxCell>
        <mxCell id="4wjB-CnQujIZlB-kZ8fe-11" value="" style="edgeStyle=orthogonalEdgeStyle;rounded=0;orthogonalLoop=1;jettySize=auto;html=1;" parent="1" source="4wjB-CnQujIZlB-kZ8fe-8" target="4wjB-CnQujIZlB-kZ8fe-10" edge="1">
          <mxGeometry relative="1" as="geometry" />
        </mxCell>
        <mxCell id="4wjB-CnQujIZlB-kZ8fe-8" value="Gestão seleciona gerar histórico escolar" style="whiteSpace=wrap;html=1;fillColor=#FFFFFF;rounded=1;" parent="1" vertex="1">
          <mxGeometry x="245" y="-620" width="120" height="60" as="geometry" />
        </mxCell>
        <mxCell id="fCJycu_71UzZV481T45E-3" style="edgeStyle=orthogonalEdgeStyle;rounded=0;orthogonalLoop=1;jettySize=auto;html=1;exitX=0.5;exitY=1;exitDx=0;exitDy=0;entryX=0.5;entryY=0;entryDx=0;entryDy=0;" edge="1" parent="1" source="4wjB-CnQujIZlB-kZ8fe-10" target="fCJycu_71UzZV481T45E-2">
          <mxGeometry relative="1" as="geometry" />
        </mxCell>
        <mxCell id="4wjB-CnQujIZlB-kZ8fe-10" value="Sistema reúne as informações necessárias para o histórico" style="whiteSpace=wrap;html=1;fillColor=#FFFFFF;rounded=1;" parent="1" vertex="1">
          <mxGeometry x="245" y="-510" width="120" height="60" as="geometry" />
        </mxCell>
        <mxCell id="4wjB-CnQujIZlB-kZ8fe-12" value="&lt;span id=&quot;docs-internal-guid-2104a1e3-7fff-686b-9c69-3e2ca37c10b6&quot;&gt;&lt;span style=&quot;font-family: Arial, sans-serif; font-variant-numeric: normal; font-variant-east-asian: normal; font-variant-alternates: normal; font-variant-position: normal; font-variant-emoji: normal; vertical-align: baseline; white-space-collapse: preserve;&quot;&gt;&lt;font style=&quot;font-size: 11px;&quot;&gt;nome do aluno, turno de estudo, número de matrícula do aluno, notas dos anos anteriores e atuais (se houver), médias com base nas notas; mostrar se o aluno foi reprovado ou aprovado nos anos&lt;/font&gt;&lt;/span&gt;&lt;/span&gt;" style="shape=note;whiteSpace=wrap;html=1;backgroundOutline=1;darkOpacity=0.05;align=left;" parent="1" vertex="1">
          <mxGeometry x="460" y="-660" width="240" height="115" as="geometry" />
        </mxCell>
        <mxCell id="4wjB-CnQujIZlB-kZ8fe-13" value="" style="endArrow=none;dashed=1;html=1;rounded=0;exitX=1;exitY=0.25;exitDx=0;exitDy=0;entryX=0;entryY=1;entryDx=0;entryDy=0;entryPerimeter=0;" parent="1" source="4wjB-CnQujIZlB-kZ8fe-10" target="4wjB-CnQujIZlB-kZ8fe-12" edge="1">
          <mxGeometry width="50" height="50" relative="1" as="geometry">
            <mxPoint x="480" y="-440" as="sourcePoint" />
            <mxPoint x="530" y="-490" as="targetPoint" />
          </mxGeometry>
        </mxCell>
        <mxCell id="4wjB-CnQujIZlB-kZ8fe-17" value="" style="edgeStyle=orthogonalEdgeStyle;rounded=0;orthogonalLoop=1;jettySize=auto;html=1;entryX=0.5;entryY=0;entryDx=0;entryDy=0;" parent="1" source="4wjB-CnQujIZlB-kZ8fe-14" target="4wjB-CnQujIZlB-kZ8fe-18" edge="1">
          <mxGeometry relative="1" as="geometry">
            <mxPoint x="305" y="-320" as="targetPoint" />
          </mxGeometry>
        </mxCell>
        <mxCell id="4wjB-CnQujIZlB-kZ8fe-14" value="Sistema pede para a gestão confirmar os dados" style="whiteSpace=wrap;html=1;fillColor=#FFFFFF;rounded=1;" parent="1" vertex="1">
          <mxGeometry x="245" y="-290" width="120" height="60" as="geometry" />
        </mxCell>
        <mxCell id="4wjB-CnQujIZlB-kZ8fe-20" value="" style="edgeStyle=orthogonalEdgeStyle;rounded=0;orthogonalLoop=1;jettySize=auto;html=1;" parent="1" source="4wjB-CnQujIZlB-kZ8fe-18" target="4wjB-CnQujIZlB-kZ8fe-19" edge="1">
          <mxGeometry relative="1" as="geometry" />
        </mxCell>
        <mxCell id="4wjB-CnQujIZlB-kZ8fe-22" value="[Confirma]" style="edgeLabel;html=1;align=center;verticalAlign=middle;resizable=0;points=[];" parent="4wjB-CnQujIZlB-kZ8fe-20" vertex="1" connectable="0">
          <mxGeometry x="-0.275" y="1" relative="1" as="geometry">
            <mxPoint as="offset" />
          </mxGeometry>
        </mxCell>
        <mxCell id="4wjB-CnQujIZlB-kZ8fe-24" style="edgeStyle=orthogonalEdgeStyle;rounded=0;orthogonalLoop=1;jettySize=auto;html=1;exitX=0;exitY=0.5;exitDx=0;exitDy=0;entryX=0;entryY=0.5;entryDx=0;entryDy=0;" parent="1" source="4wjB-CnQujIZlB-kZ8fe-18" target="4wjB-CnQujIZlB-kZ8fe-6" edge="1">
          <mxGeometry relative="1" as="geometry">
            <Array as="points">
              <mxPoint x="160" y="-160" />
              <mxPoint x="160" y="-690" />
            </Array>
          </mxGeometry>
        </mxCell>
        <mxCell id="4wjB-CnQujIZlB-kZ8fe-26" value="[Cancelar]" style="edgeLabel;html=1;align=center;verticalAlign=middle;resizable=0;points=[];" parent="4wjB-CnQujIZlB-kZ8fe-24" vertex="1" connectable="0">
          <mxGeometry x="-0.8033" relative="1" as="geometry">
            <mxPoint as="offset" />
          </mxGeometry>
        </mxCell>
        <mxCell id="4wjB-CnQujIZlB-kZ8fe-18" value="" style="rhombus;whiteSpace=wrap;html=1;" parent="1" vertex="1">
          <mxGeometry x="285" y="-190" width="40" height="60" as="geometry" />
        </mxCell>
        <mxCell id="4wjB-CnQujIZlB-kZ8fe-32" style="edgeStyle=orthogonalEdgeStyle;rounded=0;orthogonalLoop=1;jettySize=auto;html=1;exitX=0.5;exitY=1;exitDx=0;exitDy=0;entryX=0.5;entryY=0;entryDx=0;entryDy=0;" parent="1" source="4wjB-CnQujIZlB-kZ8fe-19" target="4wjB-CnQujIZlB-kZ8fe-30" edge="1">
          <mxGeometry relative="1" as="geometry" />
        </mxCell>
        <mxCell id="4wjB-CnQujIZlB-kZ8fe-19" value="Sistema gera histórico escolar" style="rounded=1;whiteSpace=wrap;html=1;" parent="1" vertex="1">
          <mxGeometry x="245" y="-70" width="120" height="60" as="geometry" />
        </mxCell>
        <mxCell id="4wjB-CnQujIZlB-kZ8fe-29" value="" style="group" parent="1" vertex="1" connectable="0">
          <mxGeometry x="290" y="30" width="30" height="30" as="geometry" />
        </mxCell>
        <mxCell id="4wjB-CnQujIZlB-kZ8fe-30" value="" style="ellipse;shape=doubleEllipse;whiteSpace=wrap;html=1;aspect=fixed;fillColor=#FFFFFF;" parent="4wjB-CnQujIZlB-kZ8fe-29" vertex="1">
          <mxGeometry width="30" height="30" as="geometry" />
        </mxCell>
        <mxCell id="4wjB-CnQujIZlB-kZ8fe-31" value="" style="ellipse;shape=doubleEllipse;whiteSpace=wrap;html=1;aspect=fixed;fillColor=#000000;" parent="4wjB-CnQujIZlB-kZ8fe-29" vertex="1">
          <mxGeometry x="3.5" y="3.75" width="22.5" height="22.5" as="geometry" />
        </mxCell>
        <mxCell id="4wjB-CnQujIZlB-kZ8fe-34" value="Requisito-17 GESTÃO GERA HISTÓRICO ESCOLAR" style="text;html=1;align=center;verticalAlign=middle;whiteSpace=wrap;rounded=0;fontStyle=1;fontSize=14;" parent="1" vertex="1">
          <mxGeometry x="270" y="-1050" width="300" height="30" as="geometry" />
        </mxCell>
        <mxCell id="fCJycu_71UzZV481T45E-4" style="edgeStyle=orthogonalEdgeStyle;rounded=0;orthogonalLoop=1;jettySize=auto;html=1;exitX=0.5;exitY=1;exitDx=0;exitDy=0;entryX=0.5;entryY=0;entryDx=0;entryDy=0;" edge="1" parent="1" source="fCJycu_71UzZV481T45E-2" target="4wjB-CnQujIZlB-kZ8fe-14">
          <mxGeometry relative="1" as="geometry" />
        </mxCell>
        <mxCell id="fCJycu_71UzZV481T45E-8" value="[Possui todos os dados necessários]" style="edgeLabel;html=1;align=center;verticalAlign=middle;resizable=0;points=[];" vertex="1" connectable="0" parent="fCJycu_71UzZV481T45E-4">
          <mxGeometry x="-0.3667" relative="1" as="geometry">
            <mxPoint as="offset" />
          </mxGeometry>
        </mxCell>
        <mxCell id="fCJycu_71UzZV481T45E-6" value="" style="edgeStyle=orthogonalEdgeStyle;rounded=0;orthogonalLoop=1;jettySize=auto;html=1;" edge="1" parent="1" source="fCJycu_71UzZV481T45E-2" target="fCJycu_71UzZV481T45E-5">
          <mxGeometry relative="1" as="geometry" />
        </mxCell>
        <mxCell id="fCJycu_71UzZV481T45E-7" value="[Algum dado está nulo]" style="edgeLabel;html=1;align=center;verticalAlign=middle;resizable=0;points=[];" vertex="1" connectable="0" parent="fCJycu_71UzZV481T45E-6">
          <mxGeometry x="-0.0562" y="-5" relative="1" as="geometry">
            <mxPoint as="offset" />
          </mxGeometry>
        </mxCell>
        <mxCell id="fCJycu_71UzZV481T45E-2" value="" style="rhombus;whiteSpace=wrap;html=1;" vertex="1" parent="1">
          <mxGeometry x="285" y="-410" width="40" height="60" as="geometry" />
        </mxCell>
        <mxCell id="fCJycu_71UzZV481T45E-5" value="Sistema exibe mensagem de erro e mostra o(s) dado(s) que falta(m)" style="rounded=1;whiteSpace=wrap;html=1;" vertex="1" parent="1">
          <mxGeometry x="480" y="-410" width="120" height="60" as="geometry" />
        </mxCell>
      </root>
    </mxGraphModel>
  </diagram>
</mxfile>
